<?xml version="1.0" standalone="no"?>
<!DOCTYPE svg PUBLIC "-//W3C//DTD SVG 20010904//EN"
 "http://www.w3.org/TR/2001/REC-SVG-20010904/DTD/svg10.dtd">
<svg version="1.0" xmlns="http://www.w3.org/2000/svg"
 width="700.000000pt" height="700.000000pt" viewBox="0 0 700.000000 700.000000"
 preserveAspectRatio="xMidYMid meet">
<metadata>
Created by potrace 1.11, written by Peter Selinger 2001-2013
</metadata>
<g transform="translate(0.000000,700.000000) scale(0.100000,-0.100000)"
fill="#000000" stroke="none">
<path d="M2495 6990 c-4 -6 -10 -8 -15 -5 -5 3 -13 -3 -19 -12 -5 -10 -13 -18
-18 -18 -4 0 -7 -4 -5 -8 1 -5 -2 -6 -8 -2 -6 3 -28 -12 -49 -34 -22 -23 -44
-41 -49 -41 -5 0 -13 -11 -16 -25 -4 -14 -11 -23 -17 -20 -5 4 -9 3 -8 -2 4
-17 -14 -63 -22 -57 -8 5 -12 -9 -12 -48 0 -9 -5 -16 -11 -15 -6 1 -10 -6 -8
-15 2 -10 -3 -18 -10 -18 -9 0 -9 -3 2 -10 12 -7 12 -10 1 -10 -7 0 -11 -6 -8
-15 4 -8 2 -17 -4 -20 -5 -4 -7 -11 -4 -16 4 -5 2 -17 -4 -26 -7 -12 -5 -21 7
-31 10 -7 11 -10 4 -7 -10 5 -12 -4 -11 -39 2 -25 8 -46 13 -46 7 0 8 -3 1 -8
-13 -9 -18 -32 -7 -32 4 0 9 -14 10 -32 2 -18 8 -36 15 -40 9 -6 9 -8 -1 -8
-8 0 -5 -8 8 -22 20 -22 24 -32 21 -55 -1 -7 3 -13 9 -13 5 0 10 -7 10 -15 0
-8 5 -15 11 -15 5 0 8 -4 5 -9 -3 -5 2 -15 11 -22 14 -12 16 -12 8 1 -5 9 -5
12 1 7 5 -5 9 -12 10 -15 2 -20 17 -41 25 -36 8 5 13 -9 10 -28 0 -5 2 -7 7
-7 21 4 32 -3 32 -18 0 -15 2 -16 10 -3 8 13 10 12 10 -3 0 -11 6 -17 13 -14
6 2 20 -5 30 -16 9 -11 17 -17 17 -13 0 3 12 -2 27 -11 15 -10 24 -13 20 -6
-5 7 0 9 13 6 11 -3 20 -10 20 -16 0 -6 3 -7 7 -4 3 4 12 2 20 -4 10 -9 13 -8
13 0 0 7 5 9 10 6 6 -4 8 -9 6 -13 -2 -4 16 -7 40 -7 24 0 44 4 44 10 0 5 5 4
12 -3 10 -10 19 -8 49 10 3 1 14 -4 24 -12 11 -9 16 -10 11 -2 -7 12 -2 15 29
15 29 0 36 -3 31 -11 -3 -5 1 -9 9 -9 8 0 12 4 9 8 -8 13 44 3 63 -12 16 -13
17 -12 5 2 -11 14 -9 16 13 11 14 -2 28 -8 31 -13 3 -5 14 -5 25 1 13 8 19 7
19 0 0 -6 5 -8 10 -5 6 4 17 1 25 -5 12 -10 15 -9 16 6 0 15 2 15 10 -5 7 -18
12 -21 23 -12 7 6 16 7 20 3 4 -4 13 -7 19 -7 7 -1 11 -7 9 -13 -2 -9 3 -10
15 -3 19 10 59 -10 46 -22 -3 -4 -1 -7 5 -7 7 0 12 5 12 12 0 6 6 4 13 -7 9
-11 19 -15 27 -10 8 5 11 4 7 -2 -4 -6 1 -17 10 -24 14 -12 16 -12 9 1 -4 8 1
5 10 -7 9 -13 23 -23 30 -23 8 0 14 -7 14 -15 0 -7 8 -19 18 -24 9 -6 13 -11
8 -11 -5 0 1 -8 12 -19 12 -10 18 -22 14 -26 -4 -5 -1 -5 6 -1 9 5 15 1 19
-13 3 -11 9 -18 14 -15 5 3 9 -4 9 -16 0 -12 5 -18 10 -15 6 3 10 -3 10 -15 0
-11 7 -23 15 -26 8 -4 12 -10 9 -16 -3 -5 2 -18 11 -28 9 -10 14 -23 11 -29
-4 -5 -1 -13 5 -17 8 -5 9 -3 4 6 -5 8 -4 11 3 6 6 -3 9 -15 7 -26 -2 -11 1
-20 6 -20 6 0 7 -4 4 -10 -3 -5 -1 -10 5 -10 7 0 9 -7 6 -17 -4 -9 -2 -19 3
-23 6 -3 11 -22 13 -43 1 -20 6 -37 10 -37 4 0 8 -5 8 -11 0 -5 -6 -7 -12 -3
-8 5 -8 1 1 -10 12 -14 12 -19 2 -25 -10 -6 -9 -10 4 -15 14 -5 15 -9 5 -21
-7 -8 -8 -15 -3 -15 4 0 8 -31 8 -70 0 -38 -3 -70 -6 -70 -8 0 -5 -33 5 -48 4
-7 1 -15 -8 -18 -9 -3 -13 -10 -10 -15 3 -5 11 -7 17 -3 7 3 4 -1 -6 -9 -13
-11 -15 -17 -7 -22 9 -6 9 -10 -1 -16 -12 -7 -12 -9 0 -9 11 0 11 -3 0 -17
-12 -15 -12 -16 5 -9 20 7 20 7 0 -15 -10 -12 -13 -19 -6 -15 9 5 12 -3 13
-31 1 -21 1 -44 0 -52 -2 -7 2 -10 7 -7 6 3 10 -4 11 -17 2 -55 6 -75 13 -71
4 3 8 -4 8 -15 0 -23 20 -73 34 -82 5 -4 6 -14 3 -24 -4 -9 -3 -14 3 -10 9 6
14 -8 11 -28 0 -4 5 -6 11 -5 7 2 12 -3 10 -9 -1 -7 3 -13 9 -13 6 0 9 -6 6
-14 -7 -17 18 -40 32 -31 7 3 8 0 5 -9 -3 -9 -1 -16 5 -16 6 0 10 -6 9 -12 -2
-7 3 -12 10 -10 6 1 12 -7 12 -19 0 -12 4 -17 11 -13 8 4 8 0 0 -15 -7 -11
-16 -21 -21 -21 -6 0 -10 -4 -10 -10 0 -12 -48 -82 -63 -92 -7 -4 -8 -8 -4 -8
5 0 1 -8 -8 -17 -16 -16 -16 -17 0 -30 10 -7 22 -10 28 -6 6 3 7 1 3 -5 -4 -7
-1 -12 8 -12 9 0 16 -7 16 -16 0 -8 5 -12 10 -9 6 3 10 1 10 -5 0 -6 4 -9 8
-6 5 3 16 -4 25 -15 10 -11 22 -17 27 -14 6 3 10 1 10 -6 0 -15 15 -2 15 14 1
7 7 11 14 9 9 -2 12 4 8 17 -3 13 -1 18 8 15 7 -3 16 0 21 7 4 8 3 10 -4 5 -8
-5 -10 -2 -6 8 3 9 10 13 15 10 5 -3 9 2 9 11 0 8 6 18 14 21 9 3 12 13 9 22
-4 9 -3 14 2 10 4 -4 16 -3 26 3 13 7 19 6 19 -1 0 -11 49 -35 65 -31 5 1 15
-6 22 -15 8 -11 13 -13 13 -5 0 8 6 7 17 -5 12 -11 18 -13 21 -5 3 8 9 6 19
-6 8 -10 12 -12 8 -5 -3 6 -1 12 4 12 6 0 11 -6 11 -12 0 -9 4 -8 10 2 8 13
14 8 12 -11 -1 -4 14 -3 33 1 20 4 37 4 40 0 3 -5 17 -7 33 -5 15 2 33 -2 41
-9 12 -9 13 -8 6 3 -6 11 -3 13 13 9 12 -4 22 -1 22 4 0 7 5 6 14 -1 11 -9 15
-8 20 4 5 13 10 14 27 4 15 -8 19 -8 15 0 -4 6 0 11 9 11 10 0 14 -5 10 -12
-4 -7 1 -4 9 6 9 11 16 16 16 12 0 -5 8 -2 17 5 14 12 16 12 9 -1 -7 -13 -6
-13 6 0 7 8 19 15 26 16 29 2 33 5 26 17 -5 7 0 6 11 -3 11 -9 16 -10 11 -2
-4 6 -2 13 3 13 6 1 17 2 24 3 6 1 11 7 10 14 -2 7 0 11 5 11 4 -1 10 0 15 1
4 1 13 3 20 4 6 1 11 7 10 13 -2 7 7 15 20 19 30 9 58 35 50 47 -3 6 -1 7 5 3
7 -4 12 -2 12 4 0 5 13 18 30 29 16 10 27 21 23 24 -3 4 -1 7 6 7 7 0 10 4 6
9 -3 5 4 12 15 16 11 4 18 10 15 14 -2 4 5 17 15 29 11 12 20 24 20 28 0 3 9
18 20 34 11 15 17 30 13 34 -3 3 -1 6 6 6 7 0 10 4 6 9 -3 5 -1 12 5 16 5 3
10 13 10 21 0 9 7 23 16 31 13 13 13 17 2 24 -9 6 -9 9 -1 9 7 0 10 9 8 21 -4
17 -2 19 11 8 13 -10 13 -8 5 15 -6 15 -7 26 -1 26 5 0 7 9 5 20 -2 11 1 20 7
20 6 0 5 7 -3 17 -8 10 -9 14 -2 10 8 -5 11 1 9 20 -1 16 1 42 5 59 3 17 2 39
-4 49 -7 13 -6 16 2 11 6 -4 11 -2 11 3 0 6 -4 11 -8 11 -4 0 -8 9 -8 20 0 11
4 20 9 20 6 0 6 5 1 13 -5 6 -9 24 -8 39 1 16 -3 25 -9 21 -6 -4 -8 0 -4 9 3
9 0 21 -6 27 -8 8 -8 11 1 11 6 0 9 7 6 15 -4 8 -11 12 -16 9 -6 -4 -5 3 1 15
8 14 8 21 1 21 -5 0 -10 7 -10 16 0 8 -4 12 -10 9 -5 -3 -10 -2 -10 4 0 5 6
12 13 14 10 4 10 6 0 6 -7 1 -13 10 -13 21 0 11 -4 20 -8 20 -4 0 -8 10 -9 21
-1 12 -11 31 -22 43 -12 12 -21 28 -21 34 0 7 -5 12 -11 12 -5 0 -7 5 -4 10 3
6 1 10 -6 10 -7 0 -10 3 -6 6 3 3 -6 18 -20 32 -16 16 -21 28 -14 30 6 2 9 8
5 13 -3 5 0 9 5 9 6 0 11 6 11 14 0 8 10 22 22 30 12 9 18 16 13 16 -5 0 0 7
11 16 10 8 12 13 4 9 -8 -4 -6 1 4 9 11 9 16 16 12 16 -5 0 -3 6 3 14 10 11 8
16 -8 21 -12 3 -21 11 -21 16 0 5 -7 9 -16 9 -9 0 -12 5 -8 13 4 6 4 9 -1 5
-11 -10 -47 11 -40 23 4 5 3 9 -2 8 -4 -1 -21 3 -36 9 -36 15 -38 15 -30 -5 4
-11 3 -14 -5 -9 -7 4 -12 1 -12 -8 0 -8 -7 -19 -16 -24 -9 -5 -17 -13 -17 -18
-1 -5 -5 -8 -9 -7 -4 2 -5 -5 -3 -15 2 -10 -5 -24 -16 -30 -15 -10 -19 -10
-17 0 2 7 -3 12 -10 10 -7 -1 -15 5 -18 13 -3 8 -10 13 -14 10 -4 -3 -13 2
-20 10 -7 8 -21 15 -31 15 -10 0 -21 5 -24 11 -4 6 -13 8 -21 5 -8 -3 -14 -1
-14 5 0 6 -4 7 -10 4 -5 -3 -10 -2 -10 2 0 5 -12 10 -26 11 -15 1 -34 8 -42
15 -13 9 -14 9 -8 0 4 -7 3 -13 -3 -13 -5 0 -13 4 -16 10 -3 5 -34 9 -68 8
-35 -1 -69 2 -75 6 -7 4 -12 3 -12 -2 0 -5 -15 -9 -32 -10 -57 -2 -108 -14
-108 -24 0 -6 -6 -5 -15 2 -12 10 -15 10 -15 -3 0 -11 -6 -13 -22 -9 -13 3
-19 1 -15 -5 4 -6 -3 -8 -18 -5 -17 3 -25 0 -25 -9 0 -11 -2 -11 -10 1 -6 9
-10 11 -10 3 0 -7 -7 -10 -15 -7 -9 4 -15 0 -15 -7 0 -11 -3 -11 -10 1 -9 13
-10 13 -10 0 0 -9 -3 -11 -8 -5 -9 13 -35 18 -27 5 3 -5 2 -10 -4 -10 -5 0
-13 5 -16 10 -5 8 -11 7 -21 -1 -11 -9 -14 -8 -14 2 0 11 -2 11 -10 -1 -5 -8
-10 -11 -10 -6 0 5 -7 3 -15 -4 -13 -11 -14 -10 -10 3 4 8 1 18 -6 23 -8 4
-10 3 -5 -4 4 -7 4 -12 -1 -13 -4 0 -16 -2 -26 -4 -10 -2 -14 1 -10 8 4 6 0 8
-10 4 -10 -3 -17 -2 -17 3 0 6 -5 10 -11 10 -5 0 -7 -6 -3 -12 6 -9 3 -9 -9 0
-9 8 -21 11 -27 7 -5 -3 -10 -1 -10 4 0 6 -14 11 -31 11 -16 0 -28 4 -25 9 3
5 -1 12 -10 15 -10 4 -13 2 -9 -7 4 -6 1 -5 -7 4 -7 9 -19 14 -25 12 -7 -3
-13 1 -13 8 0 7 -3 10 -6 6 -4 -3 -13 1 -21 9 -8 8 -19 12 -24 9 -5 -4 -9 -1
-9 4 0 11 -36 51 -45 51 -3 0 -9 0 -15 0 -5 0 -7 7 -4 15 5 11 2 13 -10 9 -10
-4 -16 -2 -14 4 2 6 -15 28 -37 48 -22 20 -33 33 -25 28 9 -5 2 4 -15 19 -16
16 -24 26 -18 22 9 -4 11 -1 7 9 -3 9 -11 13 -17 9 -6 -4 -8 0 -4 10 4 10 2
16 -6 14 -7 -1 -12 5 -12 13 0 8 -9 23 -20 33 -11 10 -13 16 -5 12 8 -4 6 1
-4 9 -11 9 -16 16 -11 16 4 0 0 10 -11 22 -10 12 -13 18 -7 14 9 -5 11 -2 7 8
-3 9 -10 13 -15 10 -5 -3 -6 2 -3 10 3 9 2 16 -4 16 -5 0 -8 11 -7 25 2 14 0
25 -5 25 -4 0 -11 7 -14 16 -4 10 -2 13 7 8 9 -6 9 -4 1 7 -6 8 -10 22 -9 32
2 9 -1 15 -5 12 -5 -3 -11 -1 -15 5 -3 5 -1 10 6 10 8 0 9 4 0 13 -8 10 -7 17
1 25 8 8 8 12 1 12 -6 0 -13 9 -16 20 -3 12 -1 18 5 14 6 -4 5 3 -1 15 -9 16
-9 21 1 21 10 0 10 2 -1 9 -7 5 -11 13 -7 19 3 6 0 13 -6 15 -9 4 -9 6 -1 6 8
1 9 10 3 31 -6 21 -5 30 3 30 7 0 4 5 -5 10 -10 6 -15 19 -13 30 2 11 -1 20
-7 20 -6 0 -8 3 -5 7 4 3 -1 15 -10 26 -13 15 -14 18 -3 12 10 -6 9 -1 -3 13
-11 11 -16 26 -12 31 3 6 -1 11 -10 11 -9 0 -14 4 -11 9 3 5 -1 14 -10 21 -8
7 -13 19 -10 26 3 8 2 13 -2 13 -18 -3 -32 2 -32 11 0 14 -46 60 -60 60 -6 0
-8 5 -5 10 3 6 -1 10 -10 10 -9 0 -13 4 -10 10 4 6 -1 7 -11 3 -13 -5 -15 -3
-9 7 6 9 4 11 -5 5 -7 -4 -16 -2 -21 6 -6 11 -50 15 -203 16 -123 2 -197 -1
-201 -7z"/>
<path d="M5394 6299 c-5 -8 -3 -9 6 -4 8 5 11 4 7 -3 -4 -5 -15 -9 -25 -7 -9
1 -23 -3 -31 -9 -12 -9 -13 -8 -7 3 6 9 1 8 -16 -3 -14 -9 -28 -13 -31 -9 -4
3 -7 1 -7 -6 0 -12 -57 -38 -73 -33 -5 1 -7 -1 -4 -5 2 -5 -4 -16 -15 -25 -10
-10 -18 -15 -18 -11 0 4 -7 -3 -16 -15 -8 -12 -21 -19 -27 -16 -7 4 -9 4 -5
-1 11 -11 -11 -47 -24 -39 -6 4 -9 1 -6 -6 2 -8 -3 -22 -11 -31 -39 -43 -42
-49 -29 -49 9 0 9 -3 -2 -10 -8 -5 -15 -13 -16 -17 0 -4 -4 -16 -8 -26 -5 -9
-6 -26 -3 -38 4 -16 3 -18 -8 -9 -10 9 -13 7 -10 -7 1 -10 -2 -26 -7 -35 -6
-13 -5 -18 4 -19 7 0 4 -4 -7 -9 -11 -5 -15 -9 -9 -9 6 -1 11 -8 11 -16 0 -8
-5 -15 -11 -15 -6 0 -4 -5 4 -10 13 -9 13 -11 0 -20 -12 -8 -12 -10 -1 -10 11
0 11 -3 1 -15 -10 -12 -10 -15 1 -15 11 0 11 -2 -1 -10 -8 -5 -10 -10 -4 -10
6 0 11 -6 12 -12 0 -7 2 -30 3 -50 1 -21 6 -38 11 -38 4 0 8 -11 8 -24 0 -14
5 -28 10 -31 6 -4 8 -11 5 -16 -4 -5 0 -9 7 -9 9 0 9 -3 -2 -10 -13 -8 -12
-10 3 -10 10 0 17 -8 17 -20 0 -11 5 -20 10 -20 6 0 10 -9 10 -21 0 -11 5 -17
10 -14 6 3 10 -1 10 -9 0 -9 6 -16 13 -16 8 0 7 -4 -3 -10 -11 -7 -11 -10 -2
-10 7 0 10 -4 7 -10 -3 -5 1 -10 10 -10 11 0 15 -5 11 -15 -3 -10 1 -15 12
-16 10 0 12 -3 5 -6 -7 -2 -13 -9 -13 -14 0 -6 4 -8 9 -5 10 7 25 -22 22 -41
-1 -7 3 -13 10 -13 8 0 8 -4 -1 -15 -11 -13 -10 -14 5 -9 15 6 17 3 13 -14 -4
-14 -1 -25 9 -31 10 -5 14 -16 10 -30 -3 -13 -1 -19 6 -14 6 4 8 0 4 -11 -4
-10 -1 -19 8 -22 7 -3 11 -12 8 -21 -3 -8 0 -19 8 -24 11 -7 11 -9 1 -9 -10 0
-9 -4 2 -16 9 -8 14 -20 10 -25 -3 -6 0 -17 8 -26 9 -12 9 -15 1 -9 -7 4 -13
3 -13 -3 0 -5 4 -11 9 -13 12 -4 17 -69 7 -86 -4 -6 -3 -12 1 -12 5 0 9 -9 9
-20 0 -11 -3 -20 -7 -20 -4 0 -5 -9 -2 -20 3 -12 0 -20 -7 -20 -9 0 -10 -3 -1
-13 8 -10 7 -17 -1 -25 -7 -7 -8 -12 -3 -12 5 0 0 -7 -11 -16 -19 -15 -19 -16
1 -10 18 5 18 5 4 -6 -9 -7 -14 -19 -12 -25 3 -7 -1 -13 -8 -13 -7 0 -9 -3 -6
-7 4 -3 1 -13 -6 -21 -10 -13 -9 -15 3 -8 11 6 11 4 -1 -6 -9 -7 -15 -21 -13
-30 1 -10 -2 -18 -8 -18 -6 0 -8 -7 -4 -15 3 -9 0 -15 -9 -15 -8 0 -14 -3 -14
-7 4 -22 -2 -33 -13 -27 -8 5 -7 0 2 -11 8 -10 10 -16 3 -12 -7 4 -14 -1 -18
-13 -4 -11 -11 -17 -17 -14 -6 4 -9 1 -6 -7 3 -8 -7 -25 -21 -38 -14 -13 -19
-20 -11 -15 13 7 13 5 1 -9 -7 -9 -18 -14 -24 -10 -6 4 -8 0 -4 -10 6 -16 -3
-22 -26 -18 -5 1 -6 -3 -3 -8 3 -5 -1 -11 -9 -15 -8 -3 -15 -12 -15 -21 0 -8
-9 -15 -19 -15 -11 0 -23 -5 -26 -10 -4 -6 -12 -7 -18 -3 -7 4 -5 -2 3 -12 14
-17 13 -18 -2 -13 -10 4 -19 1 -22 -8 -3 -9 -11 -12 -18 -8 -8 5 -9 2 -5 -9 4
-12 2 -14 -10 -10 -9 4 -21 -1 -29 -12 -10 -13 -14 -14 -14 -5 0 9 -4 8 -13
-5 -8 -10 -19 -15 -25 -11 -8 4 -12 0 -12 -11 0 -14 -2 -15 -9 -4 -6 9 -10 10
-12 2 -3 -7 -11 -13 -20 -14 -9 -2 -28 -14 -42 -27 -63 -58 -77 -70 -77 -65 0
3 -8 -3 -18 -12 -11 -10 -18 -20 -17 -23 1 -3 -7 -14 -18 -25 -11 -11 -16 -14
-12 -6 5 10 4 12 -4 7 -6 -4 -9 -11 -7 -15 3 -4 -4 -17 -14 -29 -11 -12 -20
-26 -20 -32 0 -6 -4 -9 -9 -5 -6 3 -8 -3 -6 -15 2 -11 1 -19 -3 -17 -4 1 -8
-1 -9 -6 -5 -16 -29 -35 -38 -29 -5 3 -4 -2 4 -11 9 -12 10 -17 2 -17 -7 0 -9
-5 -6 -10 3 -5 1 -10 -5 -10 -7 0 -9 -7 -6 -16 3 -8 2 -13 -3 -10 -5 3 -12 -1
-15 -10 -3 -9 -2 -12 4 -9 6 4 1 -10 -10 -30 -11 -20 -16 -34 -10 -30 6 3 7 0
4 -10 -4 -9 -13 -14 -21 -10 -11 4 -13 1 -9 -11 5 -14 4 -15 -8 -5 -8 7 -28
13 -45 13 -17 1 -31 5 -31 11 0 5 -6 4 -14 -2 -10 -8 -16 -9 -21 -1 -10 16
-23 12 -36 -11 -8 -17 -8 -20 1 -14 7 4 4 -5 -6 -21 -11 -15 -13 -25 -6 -21
17 11 15 -4 -5 -32 -9 -14 -11 -21 -5 -17 16 10 15 -6 0 -23 -10 -11 -10 -12
-1 -7 9 5 11 2 7 -8 -3 -9 -11 -16 -18 -16 -6 -1 3 -7 19 -14 17 -7 36 -11 43
-8 6 2 12 -2 12 -9 0 -11 2 -11 9 0 7 11 13 12 23 4 7 -6 27 -13 43 -15 26 -3
30 -7 31 -33 0 -17 4 -37 9 -44 5 -10 4 -12 -4 -7 -8 6 -10 0 -6 -21 6 -28 9
-47 21 -115 3 -21 9 -38 13 -38 4 0 8 -7 8 -15 0 -8 -4 -15 -9 -15 -5 0 -3 -6
4 -14 7 -8 16 -12 19 -10 3 2 5 -8 3 -21 -1 -18 3 -25 14 -25 15 0 15 -2 2
-10 -8 -5 -10 -10 -5 -10 6 0 17 -16 24 -35 7 -19 17 -33 22 -30 5 3 6 0 3 -8
-3 -8 0 -18 5 -22 6 -3 8 -11 5 -17 -4 -7 -2 -8 4 -4 6 3 16 -3 23 -15 6 -13
22 -33 35 -46 13 -13 24 -27 24 -32 0 -4 11 -14 25 -21 13 -7 22 -17 19 -22
-3 -4 0 -8 6 -8 6 0 8 -5 4 -12 -5 -8 -1 -8 12 2 10 8 16 11 12 6 -8 -10 15
-36 31 -36 6 0 11 -5 11 -11 0 -5 5 -7 12 -3 8 5 9 2 5 -9 -3 -10 -2 -17 3
-17 6 0 10 5 10 12 0 6 7 3 15 -8 8 -10 15 -16 15 -12 0 5 12 -2 26 -15 14
-12 29 -22 32 -22 4 0 13 -4 21 -9 9 -6 12 -5 7 2 -9 15 22 8 43 -10 15 -12
22 -13 31 -5 10 9 11 9 5 -2 -5 -9 -3 -12 6 -9 8 3 21 -1 31 -9 12 -11 18 -11
24 -2 5 8 3 10 -6 4 -9 -5 -11 -4 -6 4 6 9 11 9 21 1 8 -7 18 -9 24 -6 5 3 11
1 13 -5 3 -9 10 -9 27 1 17 9 21 9 16 0 -5 -8 2 -10 23 -7 17 3 36 8 41 12 6
3 11 1 11 -4 0 -6 5 -11 11 -11 5 0 8 3 5 8 -2 4 10 8 27 9 40 2 58 6 76 17
10 7 12 5 7 -5 -5 -9 -3 -9 6 1 7 9 21 14 32 12 11 -2 16 0 12 7 -5 7 -1 9 8
5 9 -3 16 -1 16 6 0 6 5 8 10 5 6 -3 10 -1 10 5 0 6 8 10 18 8 9 -2 16 2 15 9
-2 7 4 10 12 7 8 -4 15 -1 15 6 0 6 4 8 10 5 5 -3 17 3 27 15 10 11 21 20 25
20 14 0 47 38 40 46 -4 5 1 2 11 -6 16 -11 18 -11 15 1 -2 8 3 13 10 11 8 -1
11 2 8 7 -4 5 12 28 34 51 22 22 40 45 40 50 0 6 5 10 10 10 6 0 10 7 10 16 0
9 5 12 12 8 8 -5 9 0 6 14 -4 12 -3 20 0 18 4 -2 13 2 20 10 7 8 10 14 8 14
-3 0 3 15 14 34 13 25 16 36 7 40 -7 2 -4 5 6 5 10 1 16 5 13 10 -3 5 1 14 9
21 12 10 12 16 4 26 -9 11 -7 15 6 20 13 5 14 9 3 15 -10 7 -11 9 0 9 7 0 11
4 8 9 -3 5 2 12 11 15 9 4 20 1 25 -6 6 -10 8 -10 8 1 0 11 3 11 17 0 15 -12
16 -12 8 1 -6 12 -5 13 6 3 17 -17 32 -17 23 0 -5 7 -1 6 10 -2 16 -13 18 -13
16 0 -1 7 -2 31 -1 52 1 28 4 36 14 31 8 -5 8 -2 -2 9 -7 9 -9 17 -4 17 14 0
15 73 1 81 -7 4 -21 3 -31 -3 -16 -8 -19 -7 -15 4 4 9 -1 14 -13 14 -11 0 -19
-4 -19 -9 0 -5 -7 -2 -15 7 -18 18 -20 30 -2 20 8 -6 8 -3 -1 9 -8 9 -11 20
-8 26 3 5 0 12 -6 14 -10 4 -9 6 1 6 11 1 11 4 0 18 -8 9 -9 14 -2 10 7 -5 9
0 6 13 -3 11 -8 18 -12 16 -3 -2 -6 11 -7 29 0 21 4 32 10 29 6 -3 4 0 -5 8
-9 7 -15 21 -13 31 1 9 -3 17 -9 17 -7 0 -5 5 3 10 12 8 12 10 -5 10 -17 0
-17 2 -5 10 12 8 12 10 -5 11 -12 0 -15 3 -7 6 10 4 10 9 -3 23 -9 10 -15 21
-14 26 3 14 -13 48 -29 60 -8 6 -12 16 -8 23 4 6 0 14 -8 17 -9 3 -13 10 -10
15 3 5 0 9 -6 9 -7 0 -10 7 -7 14 4 11 1 13 -10 9 -11 -4 -14 -2 -9 5 4 7 2
12 -5 12 -7 0 -10 3 -6 6 8 8 -18 34 -33 34 -6 0 -8 4 -5 10 3 5 -3 15 -15 22
-11 7 -20 19 -20 26 0 7 -4 10 -10 7 -5 -3 -10 1 -10 10 0 9 -4 13 -10 10 -5
-3 -10 1 -10 9 0 9 -4 16 -10 16 -5 0 -10 7 -10 15 0 8 -4 15 -9 15 -5 0 -14
14 -21 30 -7 17 -17 30 -22 30 -5 0 -6 5 -2 12 5 7 2 9 -8 5 -12 -4 -14 -1
-10 15 3 14 1 19 -5 15 -7 -5 -9 1 -5 15 4 15 2 19 -8 13 -8 -5 -11 -3 -8 6 3
8 -2 20 -11 27 -9 8 -11 11 -4 7 9 -4 8 3 -2 21 -8 15 -11 32 -8 37 4 6 1 7
-7 2 -10 -6 -12 -4 -7 8 4 10 1 17 -5 17 -6 0 -8 3 -5 7 4 3 1 13 -6 21 -10
13 -9 15 3 8 8 -4 6 0 -4 8 -15 12 -16 16 -5 16 12 0 12 2 -1 10 -12 8 -12 10
-1 10 9 0 10 4 4 13 -6 6 -9 20 -8 30 2 9 -1 17 -7 17 -6 0 -6 6 2 15 10 11 9
18 -4 30 -17 18 -21 30 -7 21 5 -3 11 3 14 14 3 12 1 18 -5 14 -6 -4 -5 3 1
15 7 13 8 21 2 21 -6 0 -8 7 -5 15 4 8 11 12 16 9 6 -4 5 3 -1 15 -8 14 -8 21
-1 21 7 0 8 6 0 19 -7 14 -7 22 2 27 7 5 8 3 3 -6 -5 -9 -4 -11 3 -6 9 5 9 13
1 28 -8 15 -8 19 0 14 7 -5 11 4 11 24 0 18 4 29 10 25 6 -4 7 1 3 11 -4 11
-3 15 4 11 7 -5 9 1 5 15 -3 11 -1 19 4 16 5 -4 10 6 11 20 0 15 6 28 12 30 9
3 9 8 0 18 -10 12 -9 13 5 8 9 -4 16 -3 14 2 -1 5 3 19 10 30 6 12 8 24 5 28
-3 3 2 6 12 6 15 0 15 2 5 16 -8 8 -9 14 -3 12 6 -2 12 2 14 7 5 16 23 33 32
28 4 -2 7 3 7 12 0 9 4 13 10 10 5 -3 7 0 4 9 -3 8 3 19 15 26 12 6 21 18 21
26 0 8 5 12 10 9 6 -3 10 1 10 9 0 8 5 18 12 22 7 5 8 3 3 -6 -5 -9 -4 -11 3
-6 7 4 12 13 12 21 0 8 5 17 12 21 7 5 9 2 4 -7 -4 -8 0 -5 9 6 9 11 19 20 23
20 4 0 20 13 36 28 16 14 33 24 38 21 4 -3 7 -1 6 3 -2 5 11 22 27 37 17 15
23 24 15 20 -9 -4 -6 2 5 13 11 11 24 18 29 15 5 -3 7 2 3 11 -3 9 0 18 9 21
8 3 14 15 14 26 0 11 5 20 11 20 5 0 7 5 4 10 -3 6 -1 10 5 10 6 0 8 5 5 10
-3 6 -1 10 5 10 6 0 10 6 9 13 -3 26 1 48 9 43 5 -3 9 1 9 9 0 8 -5 11 -11 8
-6 -4 -5 1 3 10 7 9 14 40 15 69 1 29 5 58 9 65 4 6 2 15 -4 19 -8 5 -9 3 -4
-6 5 -9 4 -11 -3 -6 -9 5 -8 12 1 27 10 16 9 21 -3 29 -13 9 -13 10 0 10 9 0
11 3 5 8 -5 4 -11 14 -11 22 -4 42 -15 74 -26 82 -10 6 -10 8 2 8 10 0 8 5 -7
15 -12 8 -20 23 -19 32 2 9 -7 26 -19 37 -12 12 -20 27 -18 33 3 7 -2 16 -11
19 -9 3 -16 12 -16 20 0 13 -12 18 -32 15 -5 0 -7 2 -7 7 3 17 -1 35 -7 29 -8
-8 -34 18 -34 34 0 9 -4 8 -15 -1 -14 -12 -19 -7 -16 13 1 5 -3 6 -9 2 -5 -3
-13 0 -16 9 -3 8 -12 12 -20 9 -8 -3 -14 0 -14 7 0 7 -7 10 -15 6 -10 -3 -15
1 -15 12 0 13 -2 14 -9 3 -6 -10 -10 -10 -16 -1 -4 6 -13 9 -21 6 -8 -3 -14 0
-14 6 0 7 -4 7 -14 -1 -11 -9 -16 -9 -22 0 -5 8 -3 9 6 4 9 -5 11 -4 6 4 -6 9
-11 9 -21 1 -9 -8 -15 -8 -20 0 -3 6 -11 7 -18 3 -6 -3 -23 -7 -37 -7 -14 0
-31 4 -37 7 -7 4 -15 2 -19 -4z"/>
<path d="M2250 6281 c0 -6 4 -13 10 -16 6 -3 7 1 4 9 -7 18 -14 21 -14 7z"/>
<path d="M2373 5911 c1 -3 -1 -6 -4 -6 -4 0 -17 -9 -30 -20 -12 -11 -19 -14
-14 -6 5 9 0 8 -17 -3 -14 -9 -28 -13 -31 -9 -4 3 -7 1 -7 -6 0 -7 -4 -9 -10
-6 -5 3 -10 -1 -10 -10 0 -9 -4 -13 -10 -10 -5 3 -10 2 -10 -4 0 -5 5 -13 10
-16 6 -4 8 -11 5 -16 -4 -5 1 -9 9 -9 9 0 16 -5 16 -11 0 -5 -5 -7 -10 -4 -6
4 -5 -5 2 -19 6 -14 16 -26 22 -26 6 0 4 -5 -4 -10 -11 -7 -11 -10 -2 -10 7 0
10 -5 7 -10 -4 -6 -9 -8 -13 -6 -9 5 -32 -20 -25 -28 6 -6 -12 -10 -29 -7 -5
0 -7 -3 -5 -7 1 -4 -11 -20 -27 -35 -16 -15 -25 -27 -20 -27 5 0 1 -5 -8 -11
-10 -5 -18 -17 -18 -25 0 -9 -5 -12 -12 -8 -8 5 -9 2 -5 -10 4 -9 3 -15 -1
-13 -4 3 -13 -1 -20 -9 -10 -11 -10 -14 0 -14 7 0 2 -7 -10 -16 -13 -9 -21
-22 -18 -30 3 -8 1 -14 -4 -14 -5 0 -13 -15 -18 -32 -5 -18 -15 -32 -21 -30
-7 1 -10 -2 -7 -7 4 -5 2 -12 -3 -15 -5 -4 -8 -17 -6 -31 1 -14 -1 -25 -6 -25
-4 0 -6 -9 -4 -20 2 -11 0 -20 -4 -20 -7 0 -9 -7 -12 -47 -1 -10 -6 -24 -12
-30 -6 -9 -5 -13 4 -13 9 0 10 -3 4 -8 -17 -12 -38 -60 -31 -70 4 -6 -1 -15
-10 -20 -9 -5 -15 -12 -15 -15 3 -20 0 -28 -9 -22 -5 3 -7 0 -4 -8 3 -8 0 -18
-5 -22 -6 -3 -9 -11 -6 -16 4 -5 1 -9 -4 -9 -6 0 -10 -6 -8 -12 1 -7 -3 -12
-10 -11 -7 2 -10 -4 -7 -12 4 -8 1 -15 -6 -15 -7 0 -10 -7 -6 -15 3 -8 2 -14
-2 -12 -4 1 -9 -3 -11 -8 -2 -6 -12 -16 -22 -23 -10 -7 -16 -19 -12 -27 4 -11
0 -14 -13 -9 -11 4 -16 4 -12 -1 10 -11 -82 -96 -95 -88 -5 3 -7 1 -4 -4 6 -9
-15 -24 -33 -24 -3 0 -9 -7 -13 -15 -4 -8 -17 -14 -28 -14 -13 0 -18 -4 -13
-12 5 -8 2 -9 -9 -5 -10 3 -17 2 -17 -4 0 -6 -4 -8 -9 -4 -5 3 -12 1 -16 -4
-3 -6 -13 -7 -22 -4 -12 5 -14 3 -8 -6 5 -10 2 -11 -13 -7 -11 4 -23 2 -27 -4
-3 -6 -11 -8 -16 -5 -5 4 -9 2 -9 -2 0 -5 -25 -9 -55 -8 -35 0 -54 -4 -51 -11
4 -11 -29 -12 -40 -1 -12 12 -26 8 -18 -5 4 -6 3 -8 -3 -5 -5 3 -26 7 -46 9
-21 1 -37 6 -37 11 0 5 -6 4 -14 -2 -10 -9 -16 -9 -21 -1 -5 8 -11 8 -19 1 -9
-8 -18 -6 -29 7 -10 11 -28 17 -47 16 -16 -1 -30 2 -30 8 0 5 -10 6 -21 3 -15
-5 -19 -4 -15 4 6 10 -13 16 -36 12 -5 0 -8 4 -8 10 0 5 -4 7 -10 4 -5 -3 -10
1 -10 9 0 11 -10 16 -31 16 -17 0 -28 4 -24 10 4 6 -5 10 -19 10 -14 0 -26 5
-26 12 0 6 -3 8 -7 5 -3 -4 -13 -1 -21 6 -13 10 -14 9 -7 -3 7 -12 6 -13 -6
-3 -12 10 -18 10 -28 0 -10 -9 -11 -9 -6 3 4 11 -1 16 -14 16 -11 0 -18 -3
-16 -6 2 -4 -2 -7 -10 -7 -8 0 -12 4 -9 9 6 10 -10 11 -20 1 -9 -9 -46 -11
-41 -2 7 10 -37 -2 -54 -15 -10 -8 -13 -8 -8 0 3 6 0 11 -8 11 -8 0 -13 -5
-12 -11 1 -6 -8 -10 -20 -8 -13 2 -23 -2 -23 -8 0 -6 -4 -8 -10 -5 -5 3 -10 1
-10 -4 0 -6 -5 -11 -11 -11 -5 0 -7 5 -3 12 4 7 3 8 -5 4 -6 -4 -9 -12 -6 -17
4 -5 0 -9 -8 -9 -8 0 -20 -7 -27 -15 -7 -8 -17 -12 -23 -8 -5 3 -7 1 -3 -5 3
-6 -3 -13 -14 -17 -11 -4 -17 -11 -14 -17 5 -7 1 -9 -9 -5 -9 3 -16 3 -16 -1
3 -19 -2 -33 -10 -28 -5 3 -11 -4 -14 -15 -4 -14 -11 -20 -20 -16 -11 4 -13 0
-10 -14 3 -10 0 -19 -6 -19 -6 0 -11 -7 -11 -16 0 -9 -5 -12 -12 -8 -8 5 -7 0
2 -11 9 -11 10 -16 3 -11 -8 4 -13 1 -13 -9 0 -9 -4 -14 -9 -11 -5 3 -8 -7 -7
-23 1 -16 -3 -29 -8 -28 -6 1 -11 -12 -11 -30 -1 -17 -8 -39 -16 -49 -12 -16
-12 -17 1 -9 13 8 13 7 1 -8 -7 -9 -10 -17 -7 -17 4 0 2 -10 -5 -21 -6 -12 -7
-19 -1 -15 11 7 8 -56 -4 -75 -4 -8 -3 -9 4 -5 8 5 11 -2 8 -23 -2 -18 1 -28
6 -25 6 4 8 -2 4 -14 -4 -11 -2 -23 3 -26 6 -4 7 -14 4 -23 -4 -9 -2 -14 3
-11 5 4 10 -5 11 -19 0 -14 6 -29 13 -33 9 -6 9 -9 -1 -13 -10 -4 -10 -6 -1
-6 6 -1 12 -8 12 -17 0 -8 5 -12 10 -9 6 3 10 -1 10 -11 0 -9 8 -23 18 -31 9
-8 11 -12 5 -8 -9 4 -11 1 -7 -9 3 -9 9 -14 13 -12 3 2 12 -2 19 -10 7 -8 10
-14 6 -14 -4 0 3 -8 14 -19 12 -10 18 -22 14 -26 -4 -5 -2 -5 5 -1 7 4 26 -6
44 -23 17 -17 35 -28 40 -25 5 3 9 0 9 -5 0 -6 7 -11 15 -11 8 0 15 -5 15 -11
0 -8 5 -7 15 1 13 11 14 10 10 -3 -7 -17 10 -32 20 -17 9 14 27 1 19 -13 -5
-9 -3 -9 6 0 11 10 16 9 27 -5 8 -9 12 -11 8 -4 -3 6 -2 12 2 12 5 0 15 -6 22
-12 11 -11 12 -10 6 2 -8 13 -7 13 8 1 14 -11 17 -11 17 0 0 9 3 10 8 3 9 -13
52 -13 52 1 0 5 5 3 10 -5 9 -13 10 -13 10 0 0 13 1 13 10 0 6 -9 10 -11 10
-3 0 7 7 10 17 6 11 -5 14 -3 8 6 -6 10 -3 11 15 1 18 -10 21 -9 15 1 -6 9 -3
11 9 6 10 -4 15 -3 11 3 -3 6 3 10 14 10 12 0 21 5 21 11 0 8 5 7 16 -1 12
-11 15 -11 12 0 -2 8 3 14 10 15 7 0 16 6 21 13 5 8 12 14 17 15 5 1 8 6 6 10
-1 5 1 6 5 4 5 -3 19 1 33 10 14 8 17 12 7 9 -11 -3 -15 -2 -12 4 3 6 13 10
21 10 8 0 14 5 14 11 0 5 5 7 12 3 7 -4 8 -3 4 4 -4 7 4 23 18 37 14 14 22 25
18 25 -4 0 4 10 18 21 14 11 18 17 10 13 -13 -7 -13 -6 0 12 8 10 20 22 25 26
6 5 4 8 -5 8 -12 0 -12 2 -2 9 8 4 14 12 15 17 1 5 5 8 8 7 4 -1 4 7 1 19 -3
12 -1 19 5 15 5 -3 15 10 22 29 8 22 17 32 24 27 7 -4 6 0 -2 10 -12 15 -11
17 2 17 11 0 14 5 10 17 -4 11 -3 14 5 9 8 -5 12 0 12 14 0 12 4 19 9 16 5 -3
12 1 15 10 4 10 2 13 -7 9 -6 -4 -3 1 8 10 11 9 20 20 20 26 0 5 7 14 15 19 8
5 11 10 6 10 -5 0 4 12 20 26 16 15 22 23 14 19 -8 -3 -5 2 7 13 12 11 19 23
15 27 -4 5 1 5 11 2 11 -4 16 -3 12 3 -3 6 -1 10 4 10 6 0 10 6 9 13 -2 6 3
11 10 9 6 -1 12 5 12 13 0 8 6 15 14 15 8 0 22 10 30 22 9 12 16 18 16 13 0
-5 6 -1 13 8 6 9 19 17 27 19 8 2 20 9 26 17 6 8 29 14 51 15 23 1 39 4 36 9
-2 4 4 8 14 9 10 0 23 2 28 3 6 2 18 3 28 4 12 1 16 5 11 14 -5 8 -2 8 9 -2
14 -11 17 -11 17 0 0 12 2 12 9 0 7 -11 9 -11 14 0 4 11 6 11 6 1 1 -7 6 -10
11 -7 19 12 70 14 70 3 0 -6 6 -5 16 3 9 7 18 9 22 3 4 -5 25 -10 47 -12 22
-2 43 -8 47 -15 6 -9 8 -8 8 3 1 13 2 13 13 0 7 -9 19 -14 29 -12 9 2 19 -2
23 -7 3 -6 16 -11 28 -11 11 0 34 -12 51 -27 17 -16 24 -20 17 -10 -12 15 -12
17 3 11 9 -3 16 -12 16 -20 0 -12 21 -19 35 -11 2 1 12 -8 20 -20 9 -13 23
-23 31 -23 8 0 12 -4 9 -10 -6 -9 7 -14 27 -11 4 0 4 -7 1 -17 -3 -9 -2 -14 2
-9 5 4 17 -1 28 -10 15 -13 18 -14 12 -3 -8 13 -6 13 8 1 9 -7 14 -18 11 -23
-4 -6 2 -8 15 -3 15 5 21 2 21 -10 0 -9 5 -13 10 -10 6 3 10 0 10 -7 0 -9 3
-9 10 2 6 10 10 11 10 3 0 -7 9 -13 20 -13 11 0 20 -4 20 -10 0 -5 10 -10 23
-10 13 0 29 -6 36 -12 11 -11 12 -10 6 1 -6 10 -4 12 6 5 14 -9 34 -14 57 -16
6 -1 12 -6 12 -12 0 -5 6 -2 13 9 11 14 16 15 22 5 6 -9 4 -11 -5 -5 -9 5 -11
4 -6 -3 5 -9 12 -9 29 -1 15 9 22 9 25 1 2 -7 11 -8 26 -2 14 5 27 5 33 -1 11
-11 43 -1 43 13 0 6 6 5 15 -2 11 -9 15 -9 15 -1 0 7 5 9 10 6 6 -4 17 -1 25
5 12 10 15 10 15 0 0 -9 4 -9 17 1 11 10 14 10 9 2 -4 -8 -2 -13 6 -13 9 0 9
-3 -2 -10 -8 -5 -10 -10 -4 -10 11 0 20 -19 29 -59 2 -8 9 -17 15 -21 7 -4 11
-9 9 -11 -6 -11 26 -77 35 -72 6 4 5 0 -2 -9 -10 -13 -10 -17 3 -22 9 -3 13
-10 10 -16 -3 -5 -1 -10 5 -10 6 0 9 -4 6 -9 -3 -5 3 -11 14 -14 11 -3 18 0
17 5 -1 6 9 12 23 14 13 3 27 8 30 13 3 5 14 11 25 13 11 1 23 7 26 11 3 5 14
10 24 11 19 3 31 36 12 36 -5 0 -7 3 -4 7 4 3 -1 15 -10 26 -13 15 -14 19 -3
13 8 -4 6 0 -4 8 -11 9 -16 16 -11 16 5 0 4 5 -2 11 -6 6 -9 18 -6 27 5 11 3
13 -7 7 -9 -6 -11 -4 -5 5 4 7 2 15 -4 20 -7 4 -13 13 -14 21 -2 8 -6 20 -10
27 -5 6 -5 17 -1 24 5 7 3 8 -6 3 -10 -6 -12 -4 -7 8 3 9 1 18 -6 20 -9 3 -9
7 0 19 7 8 9 19 5 23 -4 5 -1 5 5 1 14 -8 44 5 46 20 1 5 5 8 9 7 5 -2 8 2 8
7 0 6 7 10 15 10 8 0 14 3 14 8 -4 22 3 32 21 32 14 0 20 7 20 21 0 11 5 17
10 14 9 -6 14 8 11 28 -1 5 3 6 8 3 5 -3 15 2 22 11 12 14 12 16 -1 9 -8 -4
-1 4 15 18 17 14 24 26 17 26 -11 0 -11 3 0 15 31 35 38 45 38 60 0 8 5 15 11
15 8 0 7 6 -2 17 -10 12 -10 15 -1 9 8 -5 14 2 18 23 4 17 10 28 14 26 5 -3 7
6 5 20 -1 14 1 25 5 25 4 0 10 9 13 20 3 11 1 18 -4 15 -4 -3 -2 6 5 19 7 14
12 36 11 48 -1 13 3 26 9 31 8 5 7 10 -3 16 -11 7 -11 9 0 14 11 4 11 6 1 6
-8 1 -10 6 -6 13 11 18 12 108 1 108 -6 0 -6 5 0 13 13 16 13 48 0 40 -6 -4
-8 0 -4 10 3 10 2 17 -3 17 -6 0 -10 5 -10 11 0 5 5 7 11 3 7 -4 7 1 -1 16 -6
12 -9 24 -6 27 3 3 -2 12 -12 20 -9 8 -11 12 -4 8 15 -8 15 0 0 28 -7 12 -14
33 -16 47 -2 14 -7 27 -13 28 -5 2 -9 12 -9 23 0 10 -4 19 -10 19 -5 0 -9 3
-9 8 4 24 -3 42 -17 42 -8 0 -13 4 -10 9 3 5 -5 25 -18 44 -13 19 -21 39 -18
43 4 5 -2 2 -12 -6 -13 -9 -17 -10 -12 -3 8 14 -17 57 -27 46 -4 -3 -7 1 -7
11 0 9 -4 15 -9 12 -5 -3 -11 4 -14 15 -3 12 -10 18 -16 15 -5 -4 -12 3 -16
14 -6 18 -17 24 -37 21 -5 0 -8 5 -8 12 0 16 -57 50 -70 42 -6 -3 -10 0 -10 8
0 8 -7 18 -16 21 -10 4 -13 2 -9 -7 4 -6 0 -4 -8 6 -8 9 -24 17 -36 17 -11 0
-21 5 -21 10 0 6 -11 10 -25 10 -14 0 -25 3 -25 8 0 4 -12 8 -27 9 -39 1 -57
6 -65 18 -5 6 -8 5 -8 -4 0 -11 -3 -11 -15 -1 -8 7 -15 9 -15 6 0 -4 -9 -2
-20 4 -17 9 -19 8 -13 -7 6 -15 4 -16 -9 -6 -8 7 -18 10 -21 6 -4 -3 -7 -1 -7
6 0 7 -5 9 -10 6 -6 -4 -7 -12 -3 -18 5 -9 3 -9 -8 -1 -16 12 -29 12 -46 1 -8
-5 -13 -4 -13 2 0 6 -5 11 -11 11 -5 0 -7 -4 -4 -10 4 -6 -8 -11 -27 -12 -57
-2 -63 -4 -61 -14 3 -15 -44 -5 -58 12 -6 8 -9 14 -6 14 3 0 -3 17 -13 37 -11
23 -25 37 -38 38 -12 1 -20 -1 -19 -4z"/>
<path d="M1801 4312 c-1 -7 -6 -10 -11 -7 -6 4 -17 1 -25 -5 -9 -8 -15 -8 -15
-2 0 5 -9 8 -20 5 -11 -3 -17 -10 -13 -16 3 -5 1 -7 -5 -3 -6 3 -14 2 -17 -4
-5 -8 -11 -7 -21 1 -11 9 -15 8 -20 -5 -3 -9 -11 -13 -16 -10 -6 4 -14 0 -19
-7 -6 -10 -9 -10 -9 -2 0 9 -7 7 -20 -5 -12 -9 -23 -16 -26 -14 -3 2 -12 -5
-21 -15 -9 -11 -12 -12 -8 -3 4 9 1 8 -8 -3 -9 -10 -18 -18 -21 -18 -18 2 -26
0 -25 -6 3 -20 -2 -26 -11 -13 -8 13 -10 12 -10 -2 0 -10 -4 -18 -10 -18 -13
0 -76 -62 -72 -72 1 -4 -1 -7 -5 -7 -21 3 -34 -2 -28 -11 4 -6 -7 -23 -24 -37
-17 -15 -31 -33 -31 -41 0 -7 -4 -11 -9 -7 -6 3 -8 -4 -6 -16 3 -14 0 -19 -8
-16 -8 3 -14 -4 -14 -16 -1 -11 -6 -23 -10 -26 -14 -10 -46 -64 -34 -57 17 11
13 -10 -5 -28 -8 -9 -13 -16 -9 -16 3 0 1 -9 -5 -20 -11 -20 -30 -23 -42 -5
-4 5 -10 1 -14 -10 -4 -11 -12 -23 -18 -27 -7 -5 -5 -8 4 -8 11 0 12 -2 3 -8
-7 -4 -13 -25 -15 -47 -2 -22 -7 -43 -13 -47 -6 -5 -4 -8 5 -8 12 -1 11 -4 -3
-15 -18 -13 -18 -14 2 -25 12 -6 25 -8 30 -5 12 7 22 -23 17 -50 -2 -11 2 -26
8 -34 9 -12 8 -13 -3 -7 -10 6 -12 4 -7 -10 9 -32 10 -89 1 -104 -8 -13 -6
-13 8 -2 14 12 16 11 12 -9 -3 -12 1 -29 8 -38 9 -12 9 -13 0 -7 -7 4 -13 2
-13 -3 0 -6 5 -11 11 -11 6 0 9 -7 5 -15 -3 -8 -2 -15 2 -15 7 0 11 -16 14
-57 1 -7 6 -9 11 -6 6 4 8 -3 5 -15 -4 -12 -2 -20 3 -16 5 3 9 -2 9 -11 0 -9
4 -13 10 -10 5 3 7 0 5 -8 -7 -16 19 -70 28 -60 4 3 7 -1 7 -10 0 -10 6 -17
13 -17 8 0 7 -4 -3 -10 -13 -8 -13 -10 2 -10 9 0 20 -5 24 -12 4 -7 3 -8 -4
-4 -7 4 -12 3 -12 -3 0 -5 9 -13 21 -16 11 -4 18 -9 15 -12 -3 -3 15 -24 39
-47 25 -23 45 -47 45 -54 0 -6 5 -12 10 -12 6 0 10 -4 10 -9 0 -6 11 -22 25
-37 13 -14 22 -30 20 -35 -3 -4 4 -13 15 -19 11 -6 20 -20 20 -31 0 -11 4 -18
9 -15 4 3 13 -6 20 -20 9 -20 9 -24 -1 -18 -7 4 -2 -5 12 -21 14 -16 18 -24
10 -20 -12 7 -13 6 -3 -7 7 -8 10 -18 6 -21 -3 -4 2 -7 13 -7 16 0 17 -2 4
-10 -12 -8 -12 -10 -1 -10 9 0 12 -8 8 -26 -3 -16 0 -28 10 -31 7 -3 13 -13
11 -22 -1 -9 2 -23 7 -31 13 -20 15 -41 4 -34 -5 3 -6 10 -3 16 4 7 2 8 -4 4
-9 -5 -8 -15 3 -37 9 -16 13 -34 9 -40 -10 -16 -12 -59 -3 -59 5 0 9 -5 9 -11
0 -5 -5 -7 -10 -4 -13 8 -8 -17 5 -27 7 -5 7 -11 0 -15 -9 -7 -15 -38 -16 -86
0 -9 -4 -15 -8 -13 -4 3 -7 -7 -6 -22 0 -15 -6 -33 -15 -40 -13 -12 -13 -12 0
-6 10 5 8 -1 -5 -16 -11 -13 -14 -20 -6 -15 9 5 12 3 9 -6 -3 -8 -11 -13 -18
-11 -11 3 -11 0 0 -12 10 -13 10 -16 0 -16 -8 0 -10 -3 -7 -7 4 -3 -1 -12 -11
-20 -9 -8 -11 -12 -4 -8 19 10 14 -2 -10 -26 -13 -12 -18 -19 -12 -16 6 4 4
-9 -5 -27 -9 -19 -19 -32 -23 -29 -5 2 -8 -5 -8 -17 0 -14 -4 -19 -12 -14 -8
5 -9 2 -5 -10 4 -9 3 -15 -1 -13 -4 3 -13 -1 -20 -9 -7 -8 -10 -14 -6 -14 3 0
1 -7 -6 -15 -7 -8 -17 -12 -23 -8 -6 3 -7 1 -3 -5 6 -10 -77 -107 -92 -107 -7
0 -39 -26 -68 -53 -8 -7 -14 -11 -14 -7 0 3 -6 0 -14 -7 -8 -7 -13 -17 -13
-23 1 -5 -4 -9 -11 -7 -8 1 -16 -7 -19 -18 -3 -11 -9 -20 -14 -20 -5 0 -9 -7
-9 -16 0 -8 -4 -12 -10 -9 -5 3 -10 0 -10 -8 0 -8 -6 -17 -14 -20 -9 -4 -12
-14 -9 -28 4 -15 3 -20 -5 -15 -8 5 -12 -2 -12 -18 0 -14 -5 -26 -11 -26 -6 0
-9 -6 -6 -14 3 -8 -1 -22 -8 -33 -8 -10 -14 -22 -15 -28 0 -5 5 -3 10 5 5 8
10 10 10 4 0 -5 -4 -14 -9 -20 -14 -15 -23 -76 -10 -68 6 3 4 -5 -5 -18 -15
-22 -15 -27 -1 -38 9 -7 12 -18 7 -29 -7 -14 -8 -37 -2 -51 1 -3 3 -18 5 -34
2 -16 9 -32 16 -36 8 -6 8 -9 -2 -13 -9 -4 -8 -6 5 -6 14 -1 16 -4 7 -14 -8
-10 -6 -19 10 -36 12 -12 18 -29 15 -38 -5 -11 -2 -14 9 -9 9 3 13 2 10 -3 -3
-5 0 -13 6 -16 5 -4 8 -13 5 -21 -3 -8 0 -13 7 -11 7 1 11 -5 9 -13 -2 -8 -1
-12 3 -8 8 8 35 -15 35 -31 0 -5 9 -13 20 -16 11 -3 20 -13 20 -20 0 -8 5 -17
12 -21 7 -4 8 -3 4 4 -11 18 1 14 23 -6 30 -26 45 -37 61 -40 8 -2 17 -8 18
-13 2 -5 8 -9 13 -9 6 0 7 5 3 11 -3 6 5 4 18 -5 14 -9 28 -13 31 -9 4 3 7 2
7 -3 0 -5 15 -9 33 -8 17 0 43 -4 55 -10 19 -8 26 -7 33 7 5 9 16 14 24 11 8
-4 12 -10 9 -15 -3 -5 0 -9 5 -9 6 0 11 5 11 12 0 6 3 8 7 5 3 -4 12 -2 20 4
10 9 13 8 13 -2 0 -11 2 -11 9 -1 4 7 18 14 29 15 12 1 22 5 22 10 0 4 5 5 10
2 6 -3 10 -1 10 5 0 6 5 8 10 5 6 -3 10 -2 10 3 0 9 37 25 52 23 5 -1 7 5 5
12 -1 6 4 11 11 10 6 -2 12 2 12 8 0 5 4 7 10 4 6 -4 7 1 3 11 -4 12 -3 15 5
10 7 -4 12 -2 12 4 0 6 5 8 10 5 6 -3 10 3 10 15 0 12 5 18 10 15 6 -3 10 1
10 10 0 9 3 14 8 11 4 -2 15 9 25 25 10 18 12 27 4 23 -6 -4 -2 3 11 15 12 12
20 26 17 32 -4 5 -1 9 5 9 6 0 8 5 5 10 -3 6 -1 10 5 10 6 0 8 5 5 10 -3 5 -2
10 2 10 5 0 9 8 10 18 1 9 5 31 8 47 4 17 6 38 6 48 0 11 5 15 12 10 8 -4 8
-1 -1 9 -10 13 -10 17 0 21 10 4 10 6 -1 6 -11 1 -11 4 0 18 12 15 12 16 -1 8
-13 -8 -13 -7 -1 8 9 11 10 17 2 17 -6 0 -11 5 -11 11 0 5 4 8 9 5 5 -4 8 2 6
11 -1 10 -7 17 -12 16 -4 -1 -7 16 -5 38 3 23 0 39 -6 39 -6 0 -9 9 -7 20 2
11 -3 26 -11 34 -8 8 -14 26 -14 40 0 14 -4 26 -10 26 -5 0 -10 7 -10 15 0 8
-4 15 -10 15 -5 0 -10 7 -10 15 0 8 -5 15 -11 15 -5 0 -8 4 -4 9 3 6 -3 14
-12 20 -13 7 -14 10 -4 11 10 0 7 6 -7 19 -12 10 -19 21 -15 25 4 3 -2 13 -13
22 -10 8 -12 12 -4 8 10 -5 9 -1 -3 14 -11 11 -16 26 -12 31 3 6 1 11 -4 11
-6 0 -11 7 -11 15 0 8 -4 15 -8 15 -5 0 -15 23 -22 50 -7 27 -18 50 -22 50 -5
0 -6 9 -3 20 3 11 2 20 -4 20 -5 0 -8 9 -6 20 2 11 -1 20 -6 20 -6 0 -9 8 -7
18 1 9 -1 23 -5 30 -5 6 -5 12 -1 12 3 0 0 8 -7 17 -12 14 -12 16 0 8 11 -6
12 -5 5 6 -12 20 -14 36 -15 98 0 30 5 58 12 61 8 6 7 9 -2 12 -12 4 -12 7 0
21 7 10 11 17 7 17 -4 0 1 15 10 33 17 31 17 32 -2 17 -11 -8 -9 -3 6 14 14
16 19 26 13 22 -9 -5 -11 -2 -7 8 3 9 10 16 16 16 5 0 7 4 4 8 -3 5 8 35 24
68 17 32 30 64 30 71 0 6 9 18 20 26 11 8 17 16 14 20 -3 3 8 19 24 35 17 17
28 32 26 35 -3 3 4 8 15 12 12 3 19 11 16 16 -4 5 4 13 17 18 13 6 19 10 15
10 -4 1 -2 7 5 15 7 8 16 12 19 10 4 -2 9 3 13 11 3 8 10 15 16 15 17 0 40 26
32 35 -4 5 -2 5 5 2 6 -4 17 -1 25 6 7 8 19 12 27 9 8 -3 11 0 7 7 -7 11 12
16 43 12 7 -2 10 2 6 8 -3 6 1 11 9 11 9 0 16 5 16 10 0 6 5 10 11 10 5 0 7
-5 3 -12 -5 -7 -3 -8 5 -4 7 5 10 14 8 21 -4 8 3 11 19 9 13 -1 22 2 18 7 -3
5 2 9 11 9 10 0 13 5 9 12 -5 8 -2 9 10 5 9 -4 15 -3 12 2 -3 5 7 17 22 27 36
23 52 40 52 54 0 6 3 9 8 7 9 -5 42 29 35 36 -3 3 4 11 15 18 11 7 18 19 15
26 -3 8 0 13 8 11 8 -2 14 5 14 15 0 10 8 23 18 28 9 6 15 14 12 19 -3 4 2 11
11 14 8 3 13 10 9 15 -3 5 0 13 6 17 8 4 7 9 -2 15 -11 7 -9 9 5 9 11 0 16 3
13 7 -4 3 -2 12 3 18 6 7 11 24 12 39 1 14 6 26 11 26 5 0 7 6 4 14 -4 11 0
13 16 10 12 -2 34 -5 50 -6 15 -1 27 -6 27 -11 0 -5 7 -4 15 3 10 9 15 9 15 1
0 -6 5 -11 11 -11 5 0 7 5 4 10 -3 6 -2 10 4 10 5 0 8 9 6 20 -2 11 1 20 7 20
5 0 8 7 4 15 -3 8 0 15 7 15 8 0 6 4 -3 10 -9 6 -11 10 -3 10 7 0 10 7 6 17
-4 10 -2 14 4 10 5 -3 10 0 10 8 0 8 -5 15 -10 15 -5 0 -5 5 1 13 7 8 7 18 2
27 -6 8 -10 10 -10 5 0 -6 -8 -11 -19 -11 -12 0 -17 5 -13 14 4 12 1 12 -18 2
-20 -11 -22 -10 -17 4 4 9 2 16 -3 16 -6 0 -10 -5 -10 -11 0 -8 -4 -9 -13 0
-8 6 -17 8 -21 4 -9 -10 -36 30 -27 42 9 13 8 66 -2 83 -5 6 -4 12 1 12 5 0 9
7 9 15 0 12 -3 12 -15 2 -13 -10 -14 -9 -5 8 13 27 10 51 -7 47 -10 -2 -11 0
-2 11 9 10 9 17 -1 27 -10 10 -9 12 3 6 8 -4 7 -1 -3 7 -14 11 -15 16 -5 20
10 4 10 6 1 6 -7 1 -13 12 -13 26 0 14 -4 25 -10 25 -5 0 -10 9 -10 21 0 13
-4 18 -12 13 -9 -5 -9 -2 1 9 9 12 10 17 2 17 -7 0 -9 5 -6 10 4 6 3 9 -2 8
-4 -2 -9 2 -11 7 -2 6 -11 19 -20 29 -11 12 -12 16 -3 11 10 -5 12 -4 7 3 -4
7 -13 12 -21 12 -9 0 -12 8 -10 20 3 13 0 18 -7 14 -8 -5 -9 -1 -5 10 5 14 3
17 -8 12 -10 -3 -17 3 -21 19 -3 14 -13 25 -21 25 -10 0 -13 6 -9 17 4 10 4
14 0 10 -4 -3 -14 2 -23 12 -9 10 -26 23 -39 30 -12 7 -20 17 -16 23 4 7 3 8
-4 4 -7 -4 -12 -2 -12 3 0 6 -6 10 -12 9 -7 -2 -12 3 -10 10 1 6 -1 12 -5 11
-20 -3 -52 15 -62 34 -6 12 -10 15 -7 6 4 -14 1 -15 -20 -5 -13 6 -24 15 -24
19 0 5 -4 5 -10 2 -5 -3 -10 -1 -10 4 0 6 -13 11 -29 11 -16 0 -34 7 -41 15
-11 13 -15 13 -21 3 -7 -10 -9 -10 -9 1 0 7 -6 11 -15 7 -8 -3 -15 -2 -15 3 0
9 -36 8 -46 -1 -8 -8 -35 2 -30 11 2 3 -13 6 -35 6 -21 0 -39 -4 -39 -9 0 -5
-7 -3 -15 4 -12 10 -15 9 -16 -6 0 -18 -1 -18 -9 1 -5 11 -9 14 -9 7z"/>
<path d="M6250 3293 c0 -7 -7 -10 -17 -6 -11 4 -14 3 -9 -5 5 -9 0 -9 -19 -2
-18 7 -24 7 -20 -1 4 -6 1 -10 -6 -8 -27 3 -40 -1 -34 -11 3 -5 1 -10 -4 -10
-6 0 -11 5 -11 10 0 6 -5 10 -11 10 -5 0 -8 -4 -5 -9 5 -8 -29 -25 -46 -22 -5
1 -8 -7 -9 -16 0 -10 -3 -13 -5 -6 -4 8 -11 7 -23 -5 -10 -9 -16 -21 -13 -26
3 -5 -2 -7 -10 -3 -10 3 -20 -3 -28 -18 -7 -14 -17 -22 -22 -19 -4 3 -8 -2 -8
-11 0 -11 -5 -15 -16 -11 -9 3 -12 2 -9 -4 4 -6 -10 -33 -30 -61 -20 -28 -34
-58 -31 -66 3 -7 2 -12 -3 -9 -8 5 -15 -9 -19 -37 -1 -4 -8 -15 -17 -23 -8 -9
-13 -20 -10 -25 4 -5 1 -9 -4 -9 -6 0 -11 -7 -11 -16 0 -9 -5 -12 -12 -8 -8 5
-7 0 2 -11 8 -10 11 -16 5 -13 -11 7 -37 -17 -28 -26 3 -3 -1 -8 -10 -12 -9
-3 -14 -11 -11 -19 3 -7 -2 -15 -11 -19 -9 -3 -14 -10 -10 -15 3 -6 -4 -15
-15 -21 -11 -6 -18 -15 -15 -21 4 -5 -1 -12 -10 -15 -9 -4 -14 -13 -11 -20 3
-9 -1 -11 -12 -7 -9 3 -14 3 -10 -2 4 -4 0 -14 -8 -22 -8 -8 -12 -19 -9 -24 4
-5 -1 -6 -10 -3 -9 4 -15 3 -13 -2 1 -5 -15 -27 -36 -49 -22 -22 -36 -33 -32
-25 4 8 -2 4 -13 -10 -11 -14 -21 -21 -21 -16 0 6 -6 2 -13 -9 -8 -10 -18 -16
-23 -13 -10 6 -36 -17 -28 -25 3 -2 -7 -3 -21 -2 -14 2 -25 -1 -25 -7 0 -6
-11 -8 -25 -6 -18 4 -25 1 -25 -11 0 -13 -2 -13 -9 -3 -11 19 -15 19 -34 3
-10 -7 -17 -11 -17 -8 0 3 -13 2 -30 -3 -21 -6 -30 -5 -30 3 0 8 -3 8 -8 2 -8
-12 -62 -12 -82 0 -10 6 -12 4 -6 -10 5 -15 4 -16 -9 -5 -9 7 -29 13 -46 12
-18 0 -27 3 -23 10 4 6 -2 6 -15 -1 -17 -10 -22 -9 -27 2 -3 9 -13 13 -26 9
-12 -3 -19 -1 -15 4 3 5 -2 11 -11 12 -61 6 -86 17 -76 34 4 6 -1 8 -15 3 -13
-4 -21 -2 -21 5 0 6 -4 9 -8 6 -5 -3 -15 4 -22 15 -8 10 -22 19 -30 19 -9 0
-26 10 -38 23 -41 42 -59 57 -70 57 -7 0 -12 6 -12 13 0 8 -4 7 -10 -3 -8 -13
-10 -13 -10 2 0 10 -14 21 -35 28 -21 7 -32 16 -28 23 4 6 0 8 -10 4 -10 -4
-17 -2 -17 5 0 7 -5 6 -15 -2 -12 -10 -15 -9 -15 5 0 10 -3 15 -7 12 -3 -4
-13 -1 -21 6 -13 10 -14 9 -8 -1 6 -11 2 -11 -20 1 -16 8 -35 12 -43 9 -8 -2
-11 0 -8 5 3 5 -4 10 -16 10 -17 2 -18 0 -7 -7 11 -7 10 -9 -7 -7 -12 0 -19 5
-16 11 4 5 -1 7 -9 3 -9 -3 -21 0 -28 6 -10 9 -12 9 -7 -4 3 -9 0 -16 -9 -16
-7 0 -11 4 -8 8 2 4 0 10 -6 14 -5 3 -10 1 -10 -6 0 -8 -5 -7 -17 2 -11 10
-14 10 -9 2 4 -7 3 -13 -1 -13 -5 0 -15 6 -22 13 -10 8 -12 8 -7 0 4 -7 -1
-12 -11 -12 -10 0 -33 -1 -50 -1 -18 -1 -33 -6 -33 -12 0 -7 -5 -6 -14 2 -8 6
-12 19 -9 27 5 12 3 14 -7 8 -10 -6 -12 -4 -7 8 3 10 2 17 -3 17 -6 0 -10 7
-10 16 0 14 -2 15 -17 3 -11 -10 -14 -10 -9 -1 11 18 -5 15 -21 -5 -8 -11 -11
-12 -7 -3 7 13 5 13 -9 1 -9 -7 -17 -10 -17 -5 0 4 -7 -1 -16 -12 -15 -19 -16
-19 -10 1 6 19 5 19 -7 3 -8 -10 -17 -15 -20 -11 -4 3 -7 1 -7 -6 0 -7 -4 -9
-10 -6 -5 3 -10 0 -11 -7 0 -7 -4 -4 -9 7 -6 14 -9 15 -10 5 -1 -8 -3 -23 -5
-33 -2 -9 0 -15 5 -12 4 3 11 -2 14 -11 4 -10 2 -13 -7 -8 -8 5 -7 2 2 -9 7
-9 10 -17 5 -17 -4 0 0 -6 11 -13 14 -11 15 -16 5 -22 -9 -6 -11 -4 -5 6 4 8
-2 4 -14 -8 -12 -13 -26 -23 -32 -23 -6 0 -8 -4 -5 -9 6 -9 -30 -25 -48 -22
-5 1 -3 -6 5 -15 10 -13 10 -16 1 -10 -16 10 -54 -22 -45 -37 4 -7 0 -8 -11
-4 -14 5 -17 3 -13 -8 4 -9 -6 -25 -26 -41 -18 -14 -25 -23 -17 -19 8 3 5 -3
-8 -14 -13 -11 -21 -25 -17 -31 4 -6 1 -9 -7 -8 -7 2 -12 -3 -10 -9 1 -7 -3
-13 -9 -13 -5 0 -7 -4 -4 -10 3 -5 1 -10 -4 -10 -6 0 -11 -7 -11 -15 0 -8 -6
-15 -12 -15 -10 0 -10 -2 0 -9 11 -7 10 -9 -3 -15 -9 -3 -14 -10 -10 -15 3 -5
1 -12 -5 -16 -5 -3 -10 -15 -10 -26 0 -11 -4 -18 -9 -15 -4 3 -7 -6 -5 -19 1
-14 -2 -25 -7 -25 -4 0 -6 -6 -3 -14 3 -8 0 -17 -6 -21 -6 -4 -8 -16 -4 -27 5
-16 3 -19 -7 -12 -12 6 -12 5 -1 -8 8 -10 9 -19 3 -22 -5 -3 -8 -14 -6 -24 1
-9 -2 -25 -7 -36 -8 -14 -7 -17 3 -11 8 6 10 4 3 -6 -11 -18 -12 -39 -2 -60 4
-9 4 -20 0 -24 -10 -10 -9 -29 3 -37 6 -5 4 -8 -5 -8 -13 0 -13 -1 0 -10 13
-9 13 -10 0 -10 -13 0 -13 -2 -1 -9 9 -6 14 -25 14 -50 0 -23 4 -41 9 -41 6 0
5 -7 -2 -16 -11 -12 -11 -15 1 -12 9 2 13 -4 11 -14 -2 -10 1 -18 5 -18 5 0
10 -12 11 -27 1 -16 7 -30 13 -31 6 -3 5 -10 -3 -20 -7 -9 -8 -13 -2 -9 7 4
18 -1 25 -10 10 -12 10 -14 2 -9 -7 4 -13 2 -13 -3 0 -6 5 -11 10 -11 6 0 10
-7 10 -15 0 -8 5 -15 11 -15 5 0 7 -5 4 -10 -3 -5 -1 -10 6 -10 7 0 10 -3 6
-6 -3 -4 4 -15 16 -25 21 -18 21 -19 2 -14 -16 5 -15 3 3 -6 13 -7 21 -18 18
-26 -3 -8 -2 -12 2 -10 4 3 21 -9 37 -26 17 -17 21 -24 10 -16 -11 7 -2 -5 20
-29 22 -23 46 -42 53 -42 6 0 12 -7 12 -15 0 -9 6 -12 15 -9 14 6 20 -6 16
-29 -1 -5 3 -6 8 -3 13 8 42 -4 35 -15 -3 -5 1 -6 9 -3 8 3 20 -2 27 -11 7 -8
19 -15 27 -15 8 0 21 -7 29 -15 8 -8 22 -11 31 -8 11 4 14 2 9 -5 -4 -7 1 -10
14 -7 11 2 20 -2 20 -8 0 -7 4 -6 10 3 7 11 10 11 10 2 0 -7 5 -10 10 -7 6 3
10 2 10 -3 0 -5 14 -9 31 -10 17 0 37 -6 45 -13 12 -10 13 -9 7 7 -6 16 -4 17
9 7 8 -7 18 -10 21 -6 4 3 7 1 7 -4 0 -6 8 -10 18 -8 9 2 17 4 17 5 0 1 10 3
23 6 13 2 22 -1 22 -9 0 -8 3 -8 9 2 5 8 18 12 30 8 12 -3 21 -1 21 4 0 5 10
7 23 5 13 -2 21 -10 21 -20 -1 -9 1 -14 5 -12 4 3 13 -4 20 -16 7 -11 8 -17 3
-14 -6 3 -5 -4 1 -17 10 -22 37 -33 37 -15 0 4 8 8 18 8 10 0 24 6 31 13 11 9
12 9 7 0 -10 -18 25 -4 42 16 11 13 12 13 6 1 -7 -13 -5 -13 9 -2 9 8 21 11
26 8 5 -4 13 -1 17 5 4 8 3 9 -4 5 -7 -4 -12 -2 -12 3 0 6 5 11 11 11 8 0 9 4
0 13 -6 8 -8 17 -4 20 3 4 1 7 -5 7 -7 0 -12 5 -12 11 0 5 6 7 13 3 7 -5 6 -1
-3 10 -16 21 -22 46 -10 46 5 0 16 7 24 16 12 12 16 12 17 2 0 -7 4 -3 9 10 5
12 16 22 25 22 8 0 15 7 15 16 0 8 5 12 10 9 6 -3 10 -1 10 5 0 6 5 8 10 5 6
-3 10 -2 10 4 0 16 57 71 66 63 4 -4 4 -1 0 6 -4 7 4 24 22 42 16 16 27 32 24
35 -4 3 0 10 8 15 8 5 15 15 15 22 1 7 7 12 15 10 11 -3 11 0 1 12 -11 13 -11
17 2 22 9 3 13 12 10 21 -4 11 -2 14 5 9 8 -5 12 0 12 14 0 14 4 19 13 14 7
-5 6 0 -3 11 -9 11 -10 16 -2 11 7 -4 12 -1 12 9 0 10 5 13 13 9 9 -6 9 -4 -1
8 -10 13 -10 19 3 32 11 10 12 16 4 16 -8 0 -9 4 -1 13 6 7 12 28 14 45 1 17
9 34 16 37 11 4 12 8 3 19 -8 10 -9 15 -1 18 6 2 12 13 13 26 0 12 6 22 11 22
5 0 6 3 3 7 -4 3 -1 13 6 21 10 13 9 15 -3 8 -8 -4 -6 0 4 8 11 9 16 16 12 16
-5 0 -3 6 3 13 6 8 8 17 4 20 -3 4 1 7 10 7 10 0 14 6 11 14 -3 7 2 20 10 29
9 9 16 21 16 27 0 6 4 8 10 5 5 -3 7 0 4 8 -3 8 2 17 11 21 9 3 14 10 11 15
-3 5 1 12 10 15 8 3 12 11 9 16 -4 6 -1 9 7 8 7 -2 12 5 12 14 -1 10 3 16 10
15 6 -1 10 4 9 10 -2 7 0 12 5 12 21 -4 32 2 26 13 -5 8 -2 9 10 5 10 -4 15
-3 11 3 -3 6 2 13 12 17 10 3 22 13 26 20 5 7 12 11 18 8 5 -4 9 2 9 12 0 15
2 16 10 3 8 -13 10 -12 10 3 0 10 5 15 10 12 6 -3 10 -1 10 5 0 6 5 8 10 5 6
-3 10 -2 10 4 0 5 9 8 20 6 11 -2 19 -1 19 3 -3 19 3 22 21 12 16 -8 20 -8 18
2 -2 8 7 13 24 12 15 0 25 3 22 8 -3 4 9 6 25 4 17 -2 28 1 25 5 -3 5 1 9 10
9 8 0 17 -6 19 -12 4 -9 6 -7 6 3 1 10 9 15 24 14 12 -1 25 3 29 9 5 7 8 6 8
-4 0 -13 1 -13 10 0 5 8 10 10 10 4 0 -6 25 -10 64 -9 37 1 62 -3 59 -8 -3 -5
4 -6 16 -2 14 4 21 2 21 -6 0 -10 3 -10 11 -2 9 9 19 8 39 -2 15 -8 30 -12 32
-10 3 3 22 -4 44 -14 21 -11 42 -17 46 -14 5 2 8 -4 9 -14 0 -11 3 -13 6 -5 4
10 9 8 21 -5 10 -10 24 -19 32 -21 8 -2 24 -11 35 -20 19 -16 19 -16 6 1 -12
15 -12 17 3 11 9 -3 16 -11 16 -16 0 -6 7 -8 15 -4 8 3 15 0 15 -6 0 -6 3 -8
7 -5 3 4 13 1 21 -6 13 -10 14 -9 7 2 -6 11 -4 13 11 7 34 -14 66 -17 59 -6
-3 6 0 7 9 4 9 -3 13 -11 9 -18 -4 -6 1 -5 10 2 9 8 21 11 27 7 5 -3 10 -1 10
5 0 7 12 9 30 6 17 -2 30 0 30 5 0 6 4 8 9 5 5 -3 12 1 15 10 5 13 9 14 21 4
12 -10 15 -10 15 0 0 8 3 10 7 7 3 -4 11 0 17 9 6 8 20 17 31 18 11 2 19 9 17
16 -1 6 2 9 7 5 6 -3 15 4 21 16 7 11 14 18 17 15 7 -7 73 58 73 73 0 6 5 11
11 11 5 0 8 4 5 8 -3 5 3 14 14 22 10 7 16 20 12 28 -4 11 -1 13 8 7 9 -5 11
-4 6 4 -4 6 0 18 8 27 18 17 22 39 5 29 -6 -4 -5 2 2 13 7 12 18 18 24 14 5
-3 4 2 -4 11 -9 12 -10 17 -2 17 7 0 10 4 6 9 -3 5 -2 12 3 15 5 3 8 21 7 40
-1 20 2 36 8 36 5 0 4 6 -2 14 -9 11 -9 15 1 19 11 4 10 6 0 6 -7 1 -10 6 -7
11 4 6 1 18 -7 27 -9 12 -9 15 0 9 15 -9 16 6 0 22 -7 7 -8 12 -2 12 5 0 10 9
11 21 2 18 0 19 -14 7 -15 -11 -15 -11 -5 7 8 16 7 24 -6 39 -9 11 -11 16 -4
12 6 -4 12 -2 12 3 0 6 -4 11 -8 11 -4 0 -8 9 -9 20 -1 11 -9 27 -17 35 -8 9
-12 23 -9 32 4 11 3 14 -5 9 -7 -4 -12 -1 -12 8 0 9 -4 16 -10 16 -5 0 -10 7
-10 15 0 9 -7 18 -15 21 -8 4 -12 10 -9 15 3 5 -2 9 -11 9 -9 0 -14 4 -11 9 3
5 -1 12 -10 15 -8 3 -12 11 -8 17 4 8 3 9 -4 5 -6 -4 -19 1 -29 9 -44 40 -79
65 -90 65 -7 0 -13 6 -13 13 0 8 -4 7 -10 -3 -5 -8 -10 -10 -10 -4 0 10 -6 12
-50 16 -11 1 -20 6 -20 11 0 5 -6 7 -12 4 -7 -2 -21 0 -32 5 -14 8 -17 7 -11
-3 6 -9 3 -10 -8 -6 -10 4 -24 10 -32 13 -9 4 -15 1 -15 -7 0 -11 -3 -11 -10
1 -6 9 -10 11 -10 3z m-2409 -1940 c13 -16 12 -17 -3 -4 -17 13 -22 21 -14 21
2 0 10 -8 17 -17z"/>
<path d="M1370 2936 c0 -2 8 -10 18 -17 15 -13 16 -12 3 4 -13 16 -21 21 -21
13z"/>
<path d="M2676 2764 c-5 -13 -9 -15 -18 -6 -15 15 -31 16 -22 1 4 -8 1 -8 -12
-1 -23 11 -47 5 -38 -10 5 -7 2 -8 -7 -2 -17 10 -49 6 -68 -9 -11 -9 -13 -9
-8 -1 7 13 -70 -11 -89 -27 -6 -5 -14 -6 -17 -2 -4 3 -9 -2 -13 -11 -3 -9 -10
-16 -16 -16 -5 0 -6 6 -2 13 4 6 -5 1 -19 -12 -15 -14 -27 -21 -27 -16 0 5 -7
0 -15 -11 -8 -10 -15 -15 -15 -11 0 4 -6 2 -14 -5 -8 -7 -11 -17 -8 -22 3 -5
0 -6 -6 -2 -6 4 -20 -2 -30 -12 -10 -10 -29 -26 -42 -35 -16 -11 -19 -17 -10
-18 8 0 5 -4 -8 -9 -12 -5 -35 -30 -51 -54 -15 -25 -31 -42 -35 -38 -4 4 -7 3
-6 -3 5 -23 -1 -35 -17 -35 -15 0 -16 -2 -3 -10 10 -6 11 -10 3 -10 -7 0 -13
-7 -13 -15 0 -8 -5 -15 -11 -15 -5 0 -7 -4 -4 -10 3 -5 1 -10 -6 -10 -8 0 -7
-5 2 -17 8 -9 10 -14 4 -11 -5 3 -16 0 -23 -8 -10 -11 -10 -14 0 -14 10 0 10
-2 -1 -9 -7 -5 -11 -13 -7 -19 3 -6 1 -14 -6 -19 -7 -4 -14 -17 -16 -28 -2
-11 -4 -28 -6 -38 -1 -10 -8 -22 -15 -26 -9 -6 -8 -10 6 -15 17 -7 17 -8 -1
-22 -14 -10 -16 -14 -5 -14 10 0 10 -3 2 -8 -6 -4 -10 -26 -10 -50 1 -23 -1
-42 -4 -42 -4 0 -3 -16 1 -35 5 -24 4 -35 -4 -35 -6 0 -4 -5 4 -10 12 -8 12
-10 1 -10 -11 0 -11 -3 -1 -15 7 -8 9 -15 5 -15 -4 0 -2 -6 4 -14 9 -11 9 -16
0 -21 -8 -6 -7 -10 2 -16 12 -7 11 -9 0 -9 -11 0 -10 -4 5 -16 19 -15 19 -16
0 -9 -18 5 -19 4 -4 -12 8 -10 13 -24 10 -32 -3 -9 0 -11 7 -6 8 4 12 2 10 -6
-4 -31 2 -60 10 -54 6 3 8 -4 6 -15 -2 -11 1 -20 6 -20 6 0 7 -4 4 -10 -3 -5
-1 -10 5 -10 6 0 8 -4 5 -10 -3 -5 -2 -10 4 -10 5 0 12 -14 16 -30 4 -18 11
-27 17 -24 7 5 8 2 4 -5 -5 -7 0 -19 10 -27 11 -9 13 -12 5 -8 -9 5 -12 3 -7
-4 4 -7 14 -12 23 -12 13 0 14 -2 2 -17 -8 -9 -9 -14 -3 -10 7 4 14 0 18 -8 3
-8 1 -15 -4 -15 -6 0 -10 -7 -10 -15 0 -8 -5 -15 -11 -15 -5 0 -8 -3 -6 -7 6
-10 -19 -34 -27 -26 -3 4 -6 1 -6 -5 0 -7 5 -12 11 -12 5 0 7 -4 4 -10 -3 -5
0 -10 7 -10 7 0 19 -9 26 -20 7 -11 21 -20 32 -20 11 0 19 -3 19 -7 -3 -20 2
-34 10 -28 5 3 12 1 16 -5 4 -6 11 -8 16 -5 5 4 9 -2 9 -12 1 -16 2 -15 13 3
7 12 18 19 25 17 8 -3 10 1 5 13 -4 12 -3 15 5 10 7 -4 15 0 18 9 6 14 8 14
20 -2 7 -10 14 -14 14 -9 0 5 8 -1 19 -12 10 -12 21 -19 25 -15 3 3 6 0 6 -7
0 -7 3 -10 7 -7 3 4 15 -1 26 -10 15 -13 19 -14 13 -3 -4 9 -1 8 7 -3 9 -11
21 -15 32 -10 13 4 16 3 11 -5 -5 -8 1 -12 18 -12 14 0 26 -6 26 -12 0 -9 4
-8 10 2 7 11 10 11 10 2 0 -7 4 -11 8 -8 5 3 21 -1 36 -9 14 -8 24 -10 21 -5
-4 6 3 10 14 10 12 0 21 -6 21 -12 0 -9 4 -8 10 2 6 10 10 11 10 3 0 -7 5 -13
11 -13 5 0 7 6 3 13 -6 9 -4 9 8 -1 12 -10 18 -10 23 -1 6 8 9 8 15 -1 5 -9
13 -9 27 -2 15 8 24 8 33 -1 10 -9 11 -9 6 1 -5 9 3 12 31 12 22 0 45 6 52 12
11 11 12 10 6 0 -5 -10 -3 -11 11 -3 32 16 65 28 90 30 9 1 12 6 8 14 -5 7 -1
7 10 -2 14 -12 19 -12 26 -2 5 10 9 10 15 2 4 -8 11 -9 19 -2 6 5 24 8 39 7
15 -2 27 2 27 8 0 6 5 4 10 -4 7 -11 10 -11 10 -2 0 10 5 10 20 2 15 -8 20 -8
20 1 0 8 4 8 15 -1 12 -10 15 -10 15 1 0 9 3 10 8 4 4 -6 14 -10 22 -10 8 1
23 -3 33 -7 11 -6 17 -5 17 4 0 10 2 10 9 0 4 -7 22 -14 39 -14 17 -1 29 -5
26 -10 -3 -4 9 -8 25 -8 17 0 31 -3 31 -8 0 -4 9 -13 21 -20 17 -11 20 -11 13
0 -8 13 15 -2 44 -30 8 -7 18 -9 24 -6 7 4 8 2 4 -4 -4 -7 -3 -12 2 -12 14 0
117 -101 114 -111 -1 -5 5 -9 14 -9 8 0 13 -4 10 -8 -3 -5 4 -14 14 -22 10 -8
17 -17 14 -22 -3 -4 2 -8 11 -8 9 0 14 -4 10 -9 -3 -5 1 -16 9 -24 8 -8 12
-17 9 -21 -3 -3 2 -8 11 -12 13 -5 14 -9 5 -21 -10 -11 -9 -13 2 -11 8 2 13
-3 11 -9 -1 -7 2 -13 8 -13 5 0 10 -7 10 -15 0 -8 6 -15 13 -15 8 0 7 -4 -3
-10 -10 -6 -11 -10 -2 -10 6 0 12 -7 12 -15 0 -8 5 -15 11 -15 8 0 7 -6 -2
-17 -10 -11 -10 -14 -1 -9 7 4 12 1 12 -9 0 -8 7 -32 16 -53 20 -44 23 -74 9
-84 -6 -5 -5 -8 3 -8 9 0 11 -7 7 -21 -6 -16 -4 -20 6 -13 12 7 12 5 0 -9 -11
-14 -11 -18 3 -23 15 -6 15 -8 -1 -21 -10 -8 -13 -12 -7 -9 14 7 26 -32 13
-40 -6 -3 -5 -11 2 -20 9 -11 8 -14 -2 -14 -9 0 -10 -3 -4 -8 14 -10 39 -56
26 -48 -5 4 -9 -2 -8 -14 1 -11 7 -20 14 -20 7 0 13 -5 13 -11 0 -5 -5 -7 -11
-4 -6 4 -1 -12 11 -34 13 -27 25 -39 33 -35 7 4 9 4 5 -1 -4 -4 -2 -15 5 -23
10 -13 9 -14 -2 -7 -10 5 -12 4 -7 -3 4 -7 14 -12 22 -12 8 0 14 -5 14 -11 0
-5 -5 -7 -12 -3 -7 4 -8 3 -4 -4 4 -7 15 -12 24 -12 15 0 15 -2 2 -10 -13 -8
-13 -10 1 -10 9 0 27 -14 40 -31 13 -17 37 -40 54 -52 28 -20 29 -20 15 -2 -8
11 0 7 18 -9 21 -20 32 -25 32 -15 1 10 3 10 11 -3 8 -15 30 -17 179 -17 138
0 172 3 185 15 10 11 15 12 15 3 0 -7 8 -3 18 8 9 11 25 19 34 17 10 -1 17 1
17 4 -3 20 2 32 10 27 6 -3 13 1 18 9 4 8 13 15 18 15 6 1 10 7 10 14 1 6 6
11 12 10 6 -1 16 11 23 27 7 16 16 27 21 24 5 -3 9 4 9 14 0 11 10 27 23 36
12 9 15 14 7 10 -10 -5 -8 1 5 16 11 13 15 20 8 17 -8 -5 -8 -1 0 17 7 13 16
22 21 19 5 -4 6 -1 2 6 -4 6 -3 18 4 26 8 10 8 15 0 20 -8 5 -6 13 5 25 13 14
14 23 6 39 -8 14 -8 22 1 27 7 5 8 3 3 -6 -6 -9 -4 -11 4 -5 9 5 10 10 2 18
-7 7 -5 14 7 24 9 7 13 13 7 12 -22 -3 -29 2 -15 11 10 6 11 10 3 10 -7 0 -13
5 -13 11 0 5 5 7 11 3 8 -4 8 -1 1 12 -5 11 -8 29 -7 41 1 13 -3 23 -8 23 -5
0 -4 7 3 15 10 12 10 15 -2 15 -9 0 -13 10 -12 27 0 15 -6 34 -13 42 -8 7 -12
20 -9 28 3 7 -1 16 -9 19 -8 4 -12 10 -9 15 3 5 0 9 -5 9 -6 0 -11 7 -11 15 0
8 -4 15 -10 15 -5 0 -7 7 -3 15 3 9 2 15 -3 14 -23 -4 -33 2 -27 18 4 9 2 14
-3 11 -5 -3 -18 4 -29 15 -12 11 -14 17 -5 13 8 -4 6 -1 -5 8 -11 8 -27 21
-35 28 -8 7 -18 12 -22 10 -5 -1 -8 2 -8 8 0 5 -7 10 -15 10 -8 0 -15 5 -15
11 0 5 -5 7 -10 4 -6 -3 -13 0 -16 9 -3 8 -11 13 -19 10 -7 -3 -19 2 -28 10
-12 12 -17 13 -20 3 -4 -9 -6 -9 -6 1 -1 7 -5 10 -11 7 -5 -3 -10 0 -11 7 0 7
-4 4 -9 -7 -8 -19 -9 -19 -9 -1 -1 16 -3 17 -18 5 -14 -12 -16 -12 -8 0 6 11
3 13 -13 9 -13 -4 -22 -1 -22 5 0 8 -4 7 -9 -2 -7 -11 -9 -11 -13 0 -3 8 -9
10 -19 3 -8 -5 -21 -9 -29 -9 -8 0 -21 -4 -29 -9 -9 -6 -12 -5 -8 1 4 6 0 13
-8 16 -10 4 -12 1 -8 -11 6 -15 5 -16 -12 -2 -14 12 -19 12 -23 2 -3 -10 -7
-9 -16 4 -10 13 -15 14 -21 4 -5 -9 -4 -11 3 -6 8 5 10 1 5 -10 -4 -11 -8 -13
-11 -6 -2 7 -10 12 -18 12 -9 0 -12 5 -8 11 4 8 0 8 -15 0 -14 -8 -21 -8 -21
-1 0 5 -5 10 -11 10 -5 0 -8 -4 -5 -8 6 -11 -25 -9 -42 2 -7 4 -19 3 -26 -3
-10 -8 -16 -7 -25 3 -7 8 -20 12 -28 9 -12 -5 -14 -3 -8 8 8 12 6 12 -8 0 -14
-11 -17 -11 -17 0 0 12 -2 12 -9 0 -6 -9 -10 -10 -12 -2 -3 7 -14 13 -27 14
-12 0 -22 5 -22 9 0 4 -5 8 -11 8 -5 0 -7 -6 -4 -12 4 -7 0 -5 -8 4 -8 10 -17
15 -20 12 -9 -9 -48 22 -39 32 4 4 -2 2 -12 -6 -18 -14 -19 -13 -13 3 4 10 3
16 -2 13 -5 -3 -22 1 -37 9 -16 8 -25 15 -20 15 4 0 -6 13 -23 29 -16 15 -27
32 -23 36 4 5 2 5 -4 2 -14 -8 -37 16 -27 27 4 4 -3 9 -16 13 -17 4 -19 8 -9
14 10 7 9 9 -5 9 -10 0 -16 4 -13 9 3 5 -1 12 -10 15 -8 3 -13 10 -10 15 3 5
-1 12 -10 15 -9 3 -14 13 -11 21 4 8 -2 17 -15 21 -16 5 -18 8 -7 15 10 6 11
9 2 9 -7 0 -13 7 -13 15 0 8 -4 15 -10 15 -5 0 -7 7 -4 15 4 9 0 15 -7 15 -11
0 -11 3 1 10 13 8 13 10 -2 10 -12 0 -15 5 -11 17 5 11 3 14 -6 8 -10 -5 -11
-2 -6 14 4 13 2 21 -6 21 -9 0 -8 4 1 15 10 12 9 16 -2 20 -8 3 -13 17 -12 35
1 19 -4 31 -15 35 -14 6 -14 8 3 21 20 14 20 14 0 14 -16 0 -17 2 -4 10 13 9
13 10 0 11 -10 0 -8 3 5 9 14 6 15 9 5 9 -13 1 -15 16 -13 88 2 56 7 89 15 95
10 6 10 8 -1 8 -11 0 -11 3 0 17 12 15 12 16 -6 10 -20 -7 -20 -7 -1 8 12 9
15 15 7 15 -11 0 -11 3 -1 15 9 11 9 15 1 15 -7 0 -9 4 -6 10 12 20 14 54 4
66 -6 7 -10 31 -11 53 0 23 -5 41 -10 41 -5 0 -8 6 -7 13 5 40 -2 67 -18 67
-14 0 -15 2 -4 9 9 6 10 11 3 15 -6 4 -9 13 -5 21 3 8 0 15 -6 15 -6 0 -11 9
-11 19 0 11 -5 23 -11 26 -6 4 -8 14 -5 22 3 8 2 12 -3 9 -5 -3 -12 5 -15 19
-4 14 -13 25 -21 25 -8 0 -15 5 -15 11 0 5 6 7 13 4 6 -4 4 0 -5 8 -10 8 -18
20 -18 26 0 7 -5 9 -12 5 -8 -5 -8 -2 1 10 8 9 10 16 5 15 -21 -4 -31 2 -42
26 -7 15 -8 26 -1 30 5 4 7 10 4 15 -3 5 4 11 15 15 11 4 18 11 15 16 -4 5 -2
9 3 9 5 0 12 11 15 25 2 14 2 23 -1 20 -3 -3 -24 12 -46 32 -22 21 -34 29 -26
18 15 -19 15 -19 -11 0 -15 11 -25 23 -22 28 2 4 -1 7 -8 7 -6 0 -18 8 -25 18
-13 16 -14 16 -7 -2 5 -16 3 -18 -11 -13 -9 4 -15 3 -12 -1 7 -12 -38 -65 -57
-68 -10 -1 -17 4 -17 12 0 9 -4 12 -10 9 -5 -3 -10 -2 -10 4 0 5 -11 8 -25 7
-13 -2 -22 1 -19 5 5 8 -3 11 -22 8 -4 0 -10 3 -13 8 -10 13 -54 36 -46 24 3
-6 1 -11 -4 -11 -6 0 -11 5 -11 11 0 5 -5 7 -10 4 -6 -4 -18 -1 -27 7 -14 11
-16 11 -8 -2 6 -12 5 -12 -5 -3 -7 6 -19 9 -28 6 -11 -5 -13 -3 -7 8 8 12 6
12 -8 0 -14 -11 -17 -11 -17 0 0 9 -3 10 -8 4 -10 -15 -31 -13 -41 3 -6 11
-10 10 -15 -4z m1365 -2691 c13 -16 12 -17 -3 -4 -17 13 -22 21 -14 21 2 0 10
-8 17 -17z"/>
</g>
</svg>
